# AST/ASF file generated using VICON BodyLanguage
# -----------------------------------------------
:version 1.10
:name VICON
:units
  mass 1.0
  length 0.45
  angle deg
:documentation
   .ast/.asf automatically generated from VICON data using
   VICON BodyBuilder and BodyLanguage model FoxedUp or BRILLIANT.MOD
:root
   order TX TY TZ RX RY RZ
   axis XYZ
   position 0 0 0  
   orientation 0 0 0 
:bonedata
  begin
     id 1 
     name lhipjoint
     direction 0.521689 -0.742065 0.420928 
     length 2.47002 
     axis 0 0 0  XYZ
  end
  begin
     id 2 
     name lfemur
     direction 0.34202 -0.939693 0  
     length 7.24654  
     axis 0 0 20  XYZ
    dof rx ry rz
    limits (-160.0 20.0)
           (-70.0 70.0)
           (-60.0 70.0)
  end
  begin
     id 3 
     name ltibia
     direction 0.34202 -0.939693 0   
     length 8.04849   
     axis 0 0 20   XYZ
    dof rx
    limits (-10.0 170.0)
  end
  begin
     id 4 
     name lfoot
     direction 0.0745411 -0.2048 0.975961   
     length 1.72367   
     axis -90 7.62852e-016 20   XYZ
    dof rx rz
    limits (-45.0 90.0)
           (-70.0 20.0)
  end
  begin
     id 5 
     name ltoes
     direction 1.53556e-011 -4.21901e-011 1   
     length 0.87311   
     axis -90 7.62852e-016 20   XYZ
    dof rx
    limits (-90.0 20.0)
  end
  begin
     id 6 
     name rhipjoint
     direction -0.52849 -0.738415 0.418857   
     length 2.48223  
     axis 0 0 0  XYZ 
  end
  begin
     id 7 
     name rfemur
     direction -0.34202 -0.939693 0   
     length 7.15571   
     axis 0 0 -20   XYZ
    dof rx ry rz
    limits (-160.0 20.0)
           (-70.0 70.0)
           (-70.0 60.0)
  end
  begin
     id 8 
     name rtibia
     direction -0.34202 -0.939693 0   
     length 7.81659   
     axis 0 0 -20   XYZ
    dof rx
    limits (-10.0 170.0)
 end
 begin
     id 9 
     name rfoot
     direction -0.0917348 -0.252039 0.963359   
     length 1.84382  
     axis -90 -7.62852e-016 -20   XYZ
    dof rx rz
    limits (-45.0 90.0)
           (-20.0 70.0)
  end
  begin
     id 10 
     name rtoes
     direction -1.53551e-011 -4.21879e-011 1   
     length 0.927771   
     axis -90 -7.62852e-016 -20   XYZ
    dof rx
    limits (-90.0 20.0)
  end
  begin
     id 11 
     name lowerback
     direction 0.00583058 0.999822 0.0179296   
     length 2.1429   
     axis 0 0 0   XYZ
    dof rx ry rz
    limits (-20.0 45.0)
           (-30.0 30.0)
           (-30.0 30.0)
  end
  begin
     id 12 
     name upperback
     direction -0.0137999 0.999752 -0.0175071   
     length 2.14252   
     axis 0 0 0   XYZ
    dof rx ry rz
    limits (-20.0 45.0)
           (-30.0 30.0)
           (-30.0 30.0)
  end
  begin
     id 13 
     name thorax
     direction -0.0158036 0.99955 -0.0254909   
     length 2.1383   
     axis 0 0 0   XYZ
    dof rx ry rz
    limits (-20.0 45.0)
           (-30.0 30.0)
           (-30.0 30.0)
  end
  begin
     id 14 
     name lowerneck
     direction -0.0101179 0.999403 -0.0330262   
     length 1.65808   
     axis 0 0 0   XYZ
    dof rx ry rz
    limits (-20.0 45.0)
           (-30.0 30.0)
           (-30.0 30.0)
  end
  begin
     id 15 
     name upperneck
     direction 0.0497734 0.995978 -0.074501   
     length 1.5897   
     axis 0 0 0   XYZ
    dof rx ry rz
    limits (-20.0 45.0)
           (-30.0 30.0)
           (-30.0 30.0)
  end
  begin
     id 16
     name head
     direction 0.0189524 0.999519 -0.0245438  
     length 1.74024  
     axis 0 0 0   XYZ
    dof rx ry rz
    limits (-20.0 45.0)
           (-30.0 30.0)
           (-30.0 30.0)
  end
  begin
     id 17 
     name lclavicle
     direction 0.945604 0.324422 0.0241537  
     length 3.59089  
     axis 0 0 0   XYZ
    dof ry rz
    limits (-20.0 10.0)
           (0.0 20.0)
  end
  begin
     id 18 
     name lhumerus
     direction 1 -4.48964e-011 -2.63524e-027   
     length 5.2391   
     axis 180 -30 -90   XYZ
    dof rx ry rz
    limits (-60.0 90.0)
           (-90.0 90.0)
           (-90.0 90.0)
  end
  begin
     id 19
     name lradius
     direction 1 -4.48969e-011 3.86978e-028   
     length 3.31467   
     axis 180 -30 -90   XYZ
    dof rx
    limits (-10.0 170.0)
  end
  begin
     id 20
     name lwrist
     direction 1 -4.48963e-011 7.20928e-028   
     length 1.65734   
     axis -5.52449e-016 90 90   XYZ
    dof ry
    limits (-180.0 0.0)
 end
  begin
     id 21 
     name lhand
     direction 1 -4.48964e-011 1.44186e-027   
     length 0.9659   
     axis -9.20027e-016 90 90   XYZ
    dof rx rz
    limits (-90.0 90.0)
           (-45.0 45.0)
  end
  begin
     id 22 
     name lfingers
     direction 1 -4.48965e-011 2.88371e-027   
     length 0.778733   
     axis -1.84005e-015 90 90   XYZ
    dof rx
    limits (0.0 90.0)
  end
  begin
     id 23
     name lthumb
     direction 0.707107 -6.34931e-011 0.707107   
     length 1.11811   
     axis -90 45 2.85299e-015   XYZ
    dof rx rz
    limits (-45.0 45.0)
           (-45.0 45.0)
  end
  begin
     id 24 
     name rclavicle
     direction -0.923762 0.370785 0.0958234   
     length 3.54196  
     axis 0 0 0   XYZ 
    dof ry rz
    limits (-10.0 20.0)
           (-20.0 0.0)
  end
  begin
     id 25 
     name rhumerus
     direction -1 -4.48966e-011 1.18702e-017  
     length 5.30252   
     axis 180 30 90   XYZ
    dof rx ry rz
    limits (-90.0 60.0)
           (-90.0 90.0)
           (-90.0 90.0)
  end
  begin
     id 26 
     name rradius
     direction -1 -4.48966e-011 4.46736e-027   
     length 3.67875   
     axis 180 30 90   XYZ
    dof rx
    limits (-10.0 170.0)
  end
  begin
     id 27 
     name rwrist
     direction -1 -4.48966e-011 7.20928e-028   
     length 1.83937   
     axis -5.52449e-016 -90 -90   XYZ
    dof ry
    limits (-180.0 0.0)
  end
  begin
     id 28
     name rhand
     direction -1 -4.48973e-011 1.44186e-027   
     length 0.594811   
     axis -9.20027e-016 -90 -90   XYZ
    dof rx rz
    limits (-90.0 90.0)
           (-45.0 45.0)
  end
  begin
     id 29
     name rfingers
     direction -1 -4.48963e-011 2.88371e-027   
     length 0.479552   
     axis -1.84005e-015 -90 -90   XYZ
    dof rx
    limits (0.0 90.0)
  end
  begin
     id 30
     name rthumb
     direction -0.707107 -6.34932e-011 0.707107   
     length 0.688544   
     axis -90 -45 -2.85299e-015   XYZ
    dof rx rz
    limits (-45.0 45.0)
           (-45.0 45.0)
  end
:hierarchy
  begin
    root lhipjoint rhipjoint lowerback
    lhipjoint lfemur
    lfemur ltibia
    ltibia lfoot
    lfoot ltoes
    rhipjoint rfemur
    rfemur rtibia
    rtibia rfoot
    rfoot rtoes
    lowerback upperback
    upperback thorax
    thorax lowerneck lclavicle rclavicle
    lowerneck upperneck
    upperneck head
    lclavicle lhumerus
    lhumerus lradius
    lradius lwrist
    lwrist lhand lthumb
    lhand lfingers
    rclavicle rhumerus
    rhumerus rradius
    rradius rwrist
    rwrist rhand rthumb
    rhand rfingers
  end

#!OML:ASF E:\acrobat2\Project_11_07_03\Capture day 1\Session 1\Acrobat.ASF
:FULLY-SPECIFIED
:DEGREES
781
root 11.8314 21.0065 23.3431 362.794 -1.5196 2.06029
lowerback -10.8835 0.139609 -0.351741
upperback -5.7634 0.239437 -2.16806
thorax 0.107538 0.094101 -2.02111
lowerneck -3.78836 -2.94982 -0.94
upperneck 9.88135 -4.04163 1.30945
head 3.94236 -1.98227 0.411912
rclavicle -5.76476e-015 1.47101e-014
rhumerus 75.8733 -33.6277 -41.324
rradius 26.6117
rwrist -3.21963
rhand -27.7404 -26.2167
rfingers 7.12502
rthumb -1.1352 -56.1934
lclavicle -5.76476e-015 1.47101e-014
lhumerus 81.6452 23.9717 34.0337
lradius 26.2437
lwrist 8.21688
lhand -29.2967 -17.6067
lfingers 7.12502
lthumb -2.63827 12.3567
rfemur 7.92636 4.46396 18.3636
rtibia 1.92028
rfoot -27.0128 -19.6283
rtoes 21.1861
lfemur -7.09208 -4.05643 -15.4191
ltibia 26.5498
lfoot -25.258 -8.17268
ltoes -0.763286
782
root 11.8339 21.0062 23.3509 362.811 -1.54407 2.04753
lowerback -10.892 0.15327 -0.324835
upperback -5.77234 0.254993 -2.17493
thorax 0.103441 0.101146 -2.04177
lowerneck -3.83192 -2.98703 -0.702303
upperneck 9.75122 -4.07696 1.00286
head 3.89045 -2.00463 0.267783
rclavicle 3.18055e-015 -2.06736e-014
rhumerus 75.7044 -33.6671 -41.1086
rradius 26.7041
rwrist -3.38953
rhand -27.7632 -26.2668
rfingers 7.12502
rthumb -1.15722 -56.2434
lclavicle 3.18055e-015 -2.06736e-014
lhumerus 81.708 23.9764 34.1757
lradius 26.2563
lwrist 8.09068
lhand -29.2879 -17.5243
lfingers 7.12502
lthumb -2.62975 12.4392
rfemur 8.11218 4.48091 18.3417
rtibia 1.56794
rfoot -26.8019 -19.7375
rtoes 21.0479
lfemur -7.08305 -4.07046 -15.4206
ltibia 26.5603
lfoot -25.311 -8.1306
ltoes -0.824061
783
root 11.836 21.0055 23.3579 362.831 -1.56273 2.04469
lowerback -10.899 0.166895 -0.310094
upperback -5.78256 0.271685 -2.1893
thorax 0.0972599 0.108897 -2.06323
lowerneck -4.15981 -2.94038 -0.656787
upperneck 9.96013 -4.01917 1.00128
head 4.0277 -1.97199 0.254775
rclavicle -9.93923e-017 1.19271e-015
rhumerus 75.53 -33.7067 -40.8913
rradius 26.7948
rwrist -3.54998
rhand -27.7649 -26.3084
rfingers 7.12502
rthumb -1.15885 -56.285
lclavicle -9.93923e-017 1.19271e-015
lhumerus 81.7317 23.9836 34.2299
lradius 26.285
lwrist 8.06096
lhand -29.2864 -17.4445
lfingers 7.12502
lthumb -2.62834 12.5191
rfemur 8.1905 4.4935 18.3277
rtibia 1.42165
rfoot -26.6891 -19.8036
rtoes 20.8984
lfemur -7.07118 -4.0574 -15.4277
ltibia 26.5586
lfoot -25.3345 -8.12921
ltoes -0.752032
784
root 11.8377 21.0051 23.3645 362.856 -1.57585 2.04728
lowerback -10.9176 0.181732 -0.302532
upperback -5.78733 0.291021 -2.20895
thorax 0.103098 0.118116 -2.08583
lowerneck -4.72793 -2.83317 -0.77297
upperneck 10.4194 -3.89559 1.24935
head 4.31435 -1.89894 0.35131
rclavicle 3.27995e-015 1.19271e-015
rhumerus 75.3806 -33.7559 -40.7031
rradius 26.8712
rwrist -3.6781
rhand -27.7451 -26.3316
rfingers 7.12502
rthumb -1.13974 -56.3083
lclavicle 3.27995e-015 1.19271e-015
lhumerus 81.6958 24.0023 34.1573
lradius 26.333
lwrist 8.16414
lhand -29.3042 -17.3515
lfingers 7.12502
lthumb -2.64554 12.6118
rfemur 8.2175 4.50095 18.3167
rtibia 1.36427
rfoot -26.6292 -19.846
rtoes 20.7454
lfemur -7.06393 -4.04814 -15.4363
ltibia 26.5503
lfoot -25.344 -8.15605
ltoes -0.545991
785
root 11.8392 21.0052 23.3711 362.885 -1.57531 2.05093
lowerback -10.95 0.190486 -0.298274
upperback -5.79236 0.302825 -2.22644
thorax 0.115931 0.123696 -2.10514
lowerneck -5.36506 -2.68988 -1.0834
upperneck 11.0177 -3.734 1.72892
head 4.6802 -1.80144 0.564222
rclavicle -3.8763e-015 4.77083e-015
rhumerus 75.2844 -33.7953 -40.5858
rradius 26.9252
rwrist -3.73941
rhand -27.7192 -26.3333
rfingers 7.12502
rthumb -1.11467 -56.3101
lclavicle -3.8763e-015 4.77083e-015
lhumerus 81.5876 24.029 33.9669
lradius 26.3918
lwrist 8.37818
lhand -29.3406 -17.2376
lfingers 7.12502
lthumb -2.68066 12.7253
rfemur 8.36056 4.49211 18.2891
rtibia 1.07711
rfoot -26.4811 -19.9276
rtoes 20.6092
lfemur -7.06969 -4.04187 -15.4426
ltibia 26.5469
lfoot -25.349 -8.17873
ltoes -0.512433
786
root 11.8409 21.0063 23.3778 362.914 -1.55659 2.05256
lowerback -10.9922 0.187663 -0.290699
upperback -5.79036 0.299272 -2.23879
thorax 0.140852 0.121686 -2.12262
lowerneck -5.77798 -2.58542 -1.33612
upperneck 11.7903 -3.62896 2.15585
head 4.5434 -1.72468 0.675938
rclavicle 2.38542e-015 -3.97569e-015
rhumerus 75.2493 -33.8321 -40.5357
rradius 26.961
rwrist -3.75691
rhand -27.7006 -26.3269
rfingers 7.12502
rthumb -1.09674 -56.3038
lclavicle 2.38542e-015 -3.97569e-015
lhumerus 81.4628 24.0697 33.7649
lradius 26.4433
lwrist 8.58965
lhand -29.3862 -17.1081
lfingers 7.12502
lthumb -2.72466 12.8542
rfemur 8.91354 4.45753 18.2056
rtibia 3.33958e-014
rfoot -25.9892 -20.1643
rtoes 20.5218
lfemur -7.09301 -4.03286 -15.4454
ltibia 26.5593
lfoot -25.3542 -8.16499
ltoes -0.916325
787
root 11.8432 21.0085 23.3848 362.946 -1.52286 2.04269
lowerback -11.043 0.175604 -0.267027
upperback -5.78157 0.282202 -2.24476
thorax 0.177027 0.112759 -2.14403
lowerneck -6.06334 -2.52467 -1.54169
upperneck 12.0619 -3.55919 2.40267
head 4.68149 -1.68094 0.783906
rclavicle -6.85807e-015 2.3059e-014
rhumerus 75.2584 -33.8714 -40.5317
rradius 26.9844
rwrist -3.75876
rhand -27.7004 -26.3279
rfingers 7.12502
rthumb -1.0966 -56.3048
lclavicle -6.85807e-015 2.3059e-014
lhumerus 81.3734 24.1182 33.6436
lradius 26.4799
lwrist 8.71012
lhand -29.4316 -16.9751
lfingers 7.12502
lthumb -2.76852 12.9867
rfemur 8.90875 4.41944 18.2092
rtibia -7.95139e-015
rfoot -26.0001 -20.1667
rtoes 20.5004
lfemur -7.13697 -4.03632 -15.4356
ltibia 26.5905
lfoot -25.368 -8.12262
ltoes -1.59034
788
root 11.846 21.0108 23.3919 362.982 -1.48648 2.02114
lowerback -11.1003 0.16032 -0.22773
upperback -5.77169 0.259397 -2.24462
thorax 0.217748 0.100763 -2.16857
lowerneck -6.19787 -2.50857 -1.6292
upperneck 12.1378 -3.53566 2.46212
head 4.72957 -1.66811 0.815711
rclavicle 8.94531e-016 3.73715e-014
rhumerus 75.286 -33.9101 -40.5453
rradius 27.0022
rwrist -3.76901
rhand -27.7181 -26.338
rfingers 7.12502
rthumb -1.11367 -56.3149
lclavicle 8.94531e-016 3.73715e-014
lhumerus 81.3221 24.1678 33.5982
lradius 26.4992
lwrist 8.75453
lhand -29.4732 -16.8526
lfingers 7.12502
lthumb -2.80873 13.1087
rfemur 8.89787 4.37939 18.2218
rtibia -1.74931e-014
rfoot -26.0119 -20.1643
rtoes 20.5453
lfemur -7.19411 -4.03661 -15.4152
ltibia 26.635
lfoot -25.393 -8.0685
ltoes -2.39766
789
root 11.8489 21.0125 23.3987 363.023 -1.46057 2.00039
lowerback -11.1631 0.148472 -0.191515
upperback -5.76374 0.241372 -2.24284
thorax 0.259511 0.0912482 -2.18921
lowerneck -6.2975 -2.49883 -1.7376
upperneck 12.1886 -3.51991 2.53633
head 4.76488 -1.65961 0.855646
rclavicle -4.27387e-015 -7.15625e-015
rhumerus 75.3032 -33.9488 -40.5425
rradius 27.0208
rwrist -3.81084
rhand -27.7477 -26.3521
rfingers 7.12502
rthumb -1.14228 -56.3287
lclavicle -4.27387e-015 -7.15625e-015
lhumerus 81.2931 24.2127 33.5854
lradius 26.4982
lwrist 8.77994
lhand -29.5111 -16.7513
lfingers 7.12502
lthumb -2.84531 13.2095
rfemur 8.87843 4.34978 18.2316
rtibia 6.36111e-015
rfoot -26.0285 -20.147
rtoes 20.676
lfemur -7.25284 -4.02754 -15.3982
ltibia 26.682
lfoot -25.4304 -8.01624
ltoes -3.11723
790
root 11.8512 21.0133 23.4051 363.066 -1.44927 1.98662
lowerback -11.2284 0.145707 -0.171669
upperback -5.7596 0.236865 -2.24389
thorax 0.299137 0.0887611 -2.20207
lowerneck -6.40316 -2.48648 -1.80494
upperneck 12.209 -3.5029 2.60034
head 4.79089 -1.64932 0.885948
rclavicle -8.05078e-015 -1.31198e-014
rhumerus 75.2749 -33.9919 -40.4841
rradius 27.0448
rwrist -3.90267
rhand -27.7758 -26.3639
rfingers 7.12502
rthumb -1.16938 -56.3404
lclavicle -8.05078e-015 -1.31198e-014
lhumerus 81.2954 24.2435 33.6086
lradius 26.4778
lwrist 8.79452
lhand -29.5413 -16.6729
lfingers 7.12502
lthumb -2.87446 13.2875
rfemur 8.85189 4.33427 18.2353
rtibia 2.38542e-014
rfoot -26.0549 -20.1098
rtoes 20.9133
lfemur -7.30399 -4.02246 -15.3882
ltibia 26.7193
lfoot -25.478 -7.98352
ltoes -3.48176
